<?xml version="1.0" encoding="UTF-8"?>
<svg version="1.1" xmlns="http://www.w3.org/2000/svg" width="512" height="512">
<path d="M0 0 C6.69005311 2.48378928 11.72960017 8.12006318 16.74609375 13.01953125 C17.38836914 13.63441406 18.03064453 14.24929688 18.69238281 14.8828125 C26.62046428 22.48432783 34.06144353 30.28617037 40.74609375 39.01953125 C41.1951709 39.59219727 41.64424805 40.16486328 42.10693359 40.75488281 C60.90356764 64.72576547 81.93903573 96.54193422 86.74609375 127.01953125 C87.59036328 127.01400049 87.59036328 127.01400049 88.45168877 127.008358 C102.18299452 126.91980153 115.91424986 126.853978 129.64578056 126.81228256 C136.28645329 126.79143855 142.92682879 126.76317894 149.56738281 126.71777344 C155.97998197 126.67420271 162.39238276 126.65037012 168.80511856 126.64002228 C171.24745937 126.63265113 173.68978974 126.6182571 176.13204575 126.59661102 C179.56206176 126.56742879 182.99126585 126.56358157 186.42138672 126.56542969 C187.42336594 126.55104858 188.42534515 126.53666748 189.45768738 126.52185059 C199.18016019 126.57826036 206.91622166 129.47015218 213.9921875 136.16015625 C221.60092544 144.22643523 223.04618017 151.40988796 222.98660278 162.33297729 C222.98916606 164.04963378 222.98916606 164.04963378 222.99178112 165.8009702 C222.99507692 169.63804761 222.98407061 173.47495039 222.97314453 177.31201172 C222.97146676 180.06163138 222.97280886 182.81124761 222.97402954 185.56086731 C222.97507752 191.48178797 222.96881001 197.4026645 222.95755386 203.32357407 C222.94129004 211.88417666 222.93608995 220.44475795 222.93357788 229.00537433 C222.92920216 242.89487102 222.9158964 256.7843442 222.89697266 270.67382812 C222.87861067 284.16503787 222.86445572 297.65624122 222.85595703 311.14746094 C222.85543158 311.97925636 222.85490614 312.81105179 222.85436477 313.66805314 C222.85175467 317.84098517 222.84922726 322.01391725 222.84674096 326.18684936 C222.8260123 360.79776008 222.79079012 395.40864349 222.74609375 430.01953125 C224.18263306 429.99016479 224.18263306 429.99016479 225.64819336 429.96020508 C226.90639893 429.94497803 228.16460449 429.92975098 229.4609375 429.9140625 C231.33060181 429.88469604 231.33060181 429.88469604 233.23803711 429.85473633 C239.37210804 430.14289124 242.9134745 432.47846506 247.49609375 436.33203125 C253.32727856 443.29705755 254.41478069 448.19755137 254.24609375 457.14453125 C254.23328369 458.16772461 254.22047363 459.19091797 254.20727539 460.24511719 C253.79202729 475.78549995 248.11644814 487.43092671 237.74609375 499.01953125 C230.38737143 505.05095087 222.94574889 509.43932747 213.74609375 512.01953125 C213.18381087 512.1952981 212.62152799 512.37106494 212.04220623 512.55215806 C208.89264163 513.19325124 205.88302687 513.14925859 202.66845036 513.15375233 C201.95185929 513.15610456 201.23526823 513.15845679 200.49696228 513.1608803 C198.08325126 513.16756481 195.66959414 513.16711224 193.25587463 513.16670227 C191.51277123 513.17000125 189.76966859 513.17372689 188.02656692 513.17784375 C183.22643385 513.18786824 178.42631329 513.19158128 173.62617123 513.19423306 C168.45279669 513.19813485 163.27943206 513.20771337 158.10606384 513.21644592 C145.60626231 513.23621522 133.10645995 513.24627773 120.60664669 513.25517371 C114.72030214 513.25955638 108.8339585 513.26492329 102.94761467 513.27016258 C83.3793853 513.28717632 63.8111565 513.30167002 44.24292088 513.30891132 C39.16398175 513.31082122 34.08504263 513.31274155 29.00610352 513.31469727 C27.74375489 513.31518101 26.48140627 513.31566475 25.18080466 513.31616315 C4.7361901 513.32446164 -15.70836592 513.34979487 -36.15295493 513.38227794 C-57.14312585 513.41535589 -78.13326704 513.43336081 -99.12346417 513.43655556 C-110.90854812 513.43872012 -122.69354673 513.44746068 -134.47860527 513.47301674 C-144.51657613 513.49473384 -154.55444092 513.50276919 -164.59243261 513.49304996 C-169.7120025 513.48850805 -174.83135358 513.49038524 -179.9508934 513.5098114 C-184.64359442 513.5274637 -189.33591736 513.52642851 -194.02862252 513.51091411 C-195.7205177 513.50854117 -197.41243921 513.51284521 -199.10429423 513.52474276 C-211.19489769 513.60445648 -222.88894335 512.62937159 -233.19140625 505.58203125 C-234.02542969 505.02644531 -234.85945313 504.47085937 -235.71875 503.8984375 C-247.37478395 495.25968199 -255.68027346 483.46419307 -258.25390625 469.01953125 C-260.19048838 445.63785016 -260.19048838 445.63785016 -254.109375 437.765625 C-247.94044445 431.96033667 -242.5305304 429.87937873 -234.06640625 429.95703125 C-232.79410156 429.96605469 -231.52179688 429.97507812 -230.2109375 429.984375 C-228.74720703 430.00177734 -228.74720703 430.00177734 -227.25390625 430.01953125 C-227.25542513 429.4325932 -227.25694401 428.84565515 -227.25850892 428.24093109 C-227.34804678 393.44406647 -227.41666538 358.64722169 -227.45816757 323.8502658 C-227.46317032 319.67092896 -227.46834761 315.49159235 -227.47363281 311.31225586 C-227.47468205 310.48023513 -227.4757313 309.6482144 -227.47681233 308.79098093 C-227.49421133 295.32401683 -227.52574623 281.85712113 -227.56251743 268.39019758 C-227.59994092 254.56897672 -227.62214508 240.74779164 -227.63026023 226.9265222 C-227.63574509 218.399981 -227.65306029 209.87363313 -227.68557212 201.34715145 C-227.7067374 195.49797018 -227.71310175 189.64888867 -227.70791176 183.7996719 C-227.70535303 180.42628041 -227.71143428 177.05349815 -227.73072815 173.68012047 C-227.75064757 170.01772531 -227.74583715 166.35615535 -227.73492432 162.69374084 C-227.74657568 161.63438184 -227.75822705 160.57502284 -227.77023149 159.48356205 C-227.6926683 149.84404101 -224.73137447 142.85130651 -218.1796875 135.80859375 C-210.16331777 128.36133749 -202.04020226 126.71708496 -191.38330078 126.79248047 C-190.29977829 126.79218842 -189.2162558 126.79189636 -188.09989929 126.79159546 C-184.52875684 126.79298559 -180.95782463 126.80853216 -177.38671875 126.82421875 C-174.90664789 126.82795 -172.42657555 126.83079644 -169.94650269 126.83279419 C-163.4264721 126.84042181 -156.90653095 126.86006295 -150.38653564 126.88220215 C-143.73036384 126.90376311 -137.07416598 126.91179991 -130.41796875 126.921875 C-117.36324315 126.94330955 -104.30857946 126.97704936 -91.25390625 127.01953125 C-91.12042188 126.40265442 -90.9869375 125.78577759 -90.84940815 125.15020752 C-90.58367638 123.93551788 -90.58367638 123.93551788 -90.31257629 122.69628906 C-90.13784192 121.89378723 -89.96310755 121.0912854 -89.78307819 120.26446533 C-88.6962499 115.65375626 -86.77773034 111.37259343 -84.94140625 107.01953125 C-84.50554199 105.98425293 -84.06967773 104.94897461 -83.62060547 103.88232422 C-73.40073361 80.08845794 -60.61853206 58.09297691 -44.25390625 38.01953125 C-43.58222412 37.19340332 -43.58222412 37.19340332 -42.89697266 36.35058594 C-34.94398068 26.64776987 -26.34048945 17.66463999 -17.25390625 9.01953125 C-16.32191406 8.12105469 -15.38992187 7.22257813 -14.4296875 6.296875 C-10.03300633 2.3833456 -6.0918831 -0.56071935 0 0 Z " fill="#052A75" transform="translate(258.25390625,-1.01953125)"/>
<path d="M0 0 C4.91740084 1.07881753 7.8718036 4.44955356 11.25 7.9375 C11.82210205 8.52015625 12.3942041 9.1028125 12.98364258 9.703125 C17.99800588 14.87306521 22.58174642 20.3125892 27 26 C28.21623047 27.52560547 28.21623047 27.52560547 29.45703125 29.08203125 C58.94671256 66.33903325 76.64393532 112.09980627 83 159 C83.09120621 159.66925507 83.18241241 160.33851013 83.27638245 161.02804565 C85.19088933 175.60663642 85.39527386 190.12509185 85.375 204.8125 C85.37578552 206.02157013 85.37657104 207.23064026 85.37738037 208.47634888 C85.36076292 229.83984401 84.19894418 250.20422329 79 271 C27.52 271 -23.96 271 -77 271 C-81.21516603 249.92416985 -83.48831553 230.25946065 -83.33618164 208.81005859 C-83.31242702 205.23902964 -83.3156733 201.66874533 -83.32226562 198.09765625 C-83.30640964 184.93599142 -82.76991674 172.04479298 -81 159 C-80.85941162 157.94441895 -80.71882324 156.88883789 -80.57397461 155.80126953 C-72.33366712 98.39699382 -46.11021119 41.59267973 -3 2 C-2.01 1.34 -1.02 0.68 0 0 Z " fill="#66CBD0" transform="translate(255,24)"/>
<path d="M0 0 C13.0650792 -0.09269069 26.13008014 -0.16376058 39.19542122 -0.20724869 C45.26223492 -0.22812109 51.32882361 -0.25643301 57.39550781 -0.30175781 C63.25047898 -0.34522702 69.10523376 -0.36913972 74.96035385 -0.37950897 C77.19388104 -0.38689833 79.42739641 -0.40132799 81.66083145 -0.42292023 C84.78993552 -0.45196775 87.91814603 -0.45595534 91.04736328 -0.45410156 C91.97021622 -0.46848267 92.89306915 -0.48286377 93.84388733 -0.49768066 C99.37571031 -0.46223212 102.70171863 0.17309026 107 4 C111.03030758 8.81100893 110.41025865 14.04734894 110.36076355 20.00337219 C110.36332682 21.12653766 110.3658901 22.24970313 110.36853105 23.40690392 C110.37348043 27.17807128 110.35695642 30.9488401 110.34057617 34.7199707 C110.33973015 37.42019046 110.34007239 40.12038566 110.34190369 42.82060242 C110.34347645 48.63788812 110.33406696 54.45507284 110.31719017 60.27233315 C110.29280513 68.68308954 110.28499541 77.09379713 110.2812262 85.50458505 C110.27466093 99.15062669 110.25469774 112.79661453 110.22631836 126.44262695 C110.19877973 139.69815811 110.17757959 152.95367458 110.16479492 166.20922852 C110.16399093 167.03468436 110.16318694 167.8601402 110.16235858 168.71060985 C110.15612029 175.16625299 110.15024952 181.62189645 110.14449489 188.07754004 C110.11619576 219.71840942 110.05584045 251.35914409 110 283 C55.22 283 0.44 283 -56 283 C-53.55127942 279.32691913 -51.40880123 276.22447657 -48.625 272.9375 C-40.17171633 262.19364914 -36.6447511 250.20431716 -36.75 236.75 C-36.74226563 235.77675781 -36.73453125 234.80351562 -36.7265625 233.80078125 C-36.74460238 227.00876629 -37.5725769 220.63637937 -39 214 C-36.78645833 212.69791667 -34.57291667 211.39583333 -32.359375 210.09375 C-27.30577386 205.60909734 -25.87950534 201.06592735 -25.47344971 194.48034668 C-25.33181708 190.98702012 -25.28410893 187.49576871 -25.25 184 C-25.22179872 182.5429339 -25.19186556 181.08590023 -25.16015625 179.62890625 C-25.08678491 176.08608939 -25.03691048 172.54340619 -25 169 C-13.29813027 168.37497432 -13.29813027 168.37497432 -8.625 170.625 C-7.75875 171.40875 -6.8925 172.1925 -6 173 C-4.92425524 173.92335325 -3.84593215 174.8437076 -2.765625 175.76171875 C-2.17845703 176.27524902 -1.59128906 176.7887793 -0.98632812 177.31787109 C2.95531382 180.65586434 7.12578807 183.705512 11.25 186.8125 C13.0542326 188.18378188 14.85761867 189.55617828 16.66015625 190.9296875 C17.54848145 191.60612305 18.43680664 192.28255859 19.35205078 192.97949219 C21.92461194 194.94247542 24.49257886 196.9112821 27.05859375 198.8828125 C27.84137695 199.48375732 28.62416016 200.08470215 29.43066406 200.70385742 C30.90374203 201.83543754 32.3757955 202.96835296 33.84667969 204.1027832 C38.56526447 207.72560774 40.95792456 209.34804515 47.02734375 209.29296875 C49.24352345 209.12736327 49.24352345 209.12736327 51.4375 207.125 C54.40124376 203.09430849 54.1607701 199.67277377 54.17700195 194.82519531 C54.18357315 193.97932358 54.19014435 193.13345184 54.19691467 192.26194763 C54.21668698 189.45067252 54.22832597 186.63945123 54.23828125 183.828125 C54.24235678 182.8655352 54.2464323 181.9029454 54.25063133 180.91118622 C54.27152002 175.80521356 54.28580323 170.6992679 54.29516602 165.59326172 C54.30616828 160.34821088 54.34048782 155.1035916 54.38033772 149.85869217 C54.40665833 145.80398848 54.41487202 141.74938454 54.41844749 137.69460297 C54.42328259 135.76354851 54.43480733 133.83249758 54.45348549 131.9015274 C54.55652096 120.53244568 53.99601854 110.7773202 50 100 C49.73552063 99.2802298 49.47104126 98.56045959 49.19854736 97.81887817 C43.84098718 84.48024246 32.63876941 71.25840309 19.34936523 65.31860352 C9.34036397 60.6124065 9.34036397 60.6124065 7.06781006 56.18313599 C5.53962147 51.11542165 5.47582227 45.87913641 5.3125 40.625 C5.15839702 38.19726711 4.979946 35.77203624 4.80142212 33.34599304 C4.68707208 31.75732045 4.58115543 30.16801673 4.48397827 28.57820129 C4.00607803 20.91529887 2.52175445 13.63568871 0.734375 6.18359375 C0 3 0 3 0 0 Z " fill="#D1DBFC" transform="translate(351,146)"/>
<path d="M0 0 C0.98584076 -0.00043808 1.97168152 -0.00087616 2.98739624 -0.00132751 C6.23944032 0.00075917 9.49096612 0.02408502 12.74291992 0.04760742 C15.00021584 0.05320379 17.25751541 0.0574737 19.51481628 0.06047058 C25.45130502 0.07191606 31.387573 0.10138095 37.32397461 0.13458252 C43.38351454 0.16528965 49.4430902 0.17897731 55.50268555 0.1940918 C67.38885016 0.22625071 79.27485105 0.27744369 91.16088867 0.34057617 C91.02811523 1.13540405 90.8953418 1.93023193 90.75854492 2.74914551 C89.53033261 10.10861383 88.31991064 17.46986834 87.16088867 24.84057617 C86.97993652 25.96044922 86.79898438 27.08032227 86.61254883 28.23413086 C85.77536138 33.58270171 85.06459695 38.8521798 84.80932617 44.26245117 C84.19469144 57.11693337 84.19469144 57.11693337 81.20385742 60.65698242 C78.5852119 62.23641744 76.02540568 63.27818662 73.16088867 64.34057617 C56.07070483 73.7205334 44.05035326 88.58637176 38.59399414 107.30273438 C36.3827178 116.36432175 36.72866844 125.53732613 36.76245117 134.80541992 C36.76042664 136.77169401 36.75751206 138.73796736 36.75375366 140.70423889 C36.74935544 144.80159741 36.7556851 148.89875836 36.76977539 152.99609375 C36.78694529 158.24394994 36.7769611 163.49134839 36.759058 168.73918819 C36.74821988 172.78924516 36.75166528 176.83919339 36.75944138 180.88925362 C36.7614392 182.82492693 36.75899881 184.76061019 36.75200272 186.6962719 C36.74437905 189.39560061 36.75600162 192.09418384 36.77270508 194.79345703 C36.76663239 195.58884384 36.76055969 196.38423065 36.75430298 197.20372009 C36.80636891 201.74833187 37.31701424 204.73708642 40.16088867 208.34057617 C43.54671172 210.03348769 46.53916733 210.12687094 50.16088867 209.34057617 C53.52671705 207.45836951 56.46511558 205.11576095 59.4621582 202.69750977 C62.05139755 200.62924413 64.69819964 198.63813905 67.33813477 196.63525391 C72.70405278 192.55865834 78.03871913 188.44078608 83.37231445 184.32202148 C84.9484399 183.10976519 86.53312504 181.90866414 88.11791992 180.70776367 C90.18124919 179.10265772 92.19941715 177.43809358 94.17260742 175.72338867 C95.15874023 174.89581055 96.14487305 174.06823242 97.16088867 173.21557617 C98.00651367 172.47049805 98.85213867 171.72541992 99.72338867 170.95776367 C105.05088233 168.45142007 110.36915357 169.04089255 116.16088867 169.34057617 C116.16499756 170.23252686 116.16910645 171.12447754 116.17333984 172.04345703 C116.20051471 175.3933577 116.2497982 178.74148895 116.31347656 182.09082031 C116.33649231 183.53276506 116.3510133 184.974874 116.35644531 186.41699219 C116.39466657 194.89917124 116.47431606 202.48742217 122.16088867 209.34057617 C124.25195653 211.34015324 124.25195653 211.34015324 126.47338867 212.40307617 C127.70255534 213.04890951 128.93172201 213.69474284 130.16088867 214.34057617 C129.9497644 215.33045532 129.9497644 215.33045532 129.734375 216.34033203 C128.35500042 223.25665843 127.8247357 229.85922007 127.84838867 236.90307617 C127.83227539 237.86665039 127.81616211 238.83022461 127.79956055 239.82299805 C127.78889019 255.64713727 134.94412549 268.44482138 145.18432617 280.03979492 C147.16088867 282.34057617 147.16088867 282.34057617 147.16088867 283.34057617 C92.38088867 283.34057617 37.60088867 283.34057617 -18.83911133 283.34057617 C-19.00043672 214.82209537 -19.00043672 214.82209537 -19.03442383 186.23510742 C-19.04225542 179.69164999 -19.05033738 173.14819293 -19.05883789 166.60473633 C-19.05989289 165.78461064 -19.06094788 164.96448494 -19.06203485 164.11950696 C-19.07943627 150.87590483 -19.11097383 137.63237211 -19.14772251 124.38881116 C-19.18511702 110.79925738 -19.20734402 97.20973997 -19.21546531 83.62013686 C-19.22095619 75.23331381 -19.23830404 66.84668686 -19.2707772 58.45992418 C-19.2919067 52.7102815 -19.29831494 46.96074033 -19.29311684 41.21106164 C-19.29055257 37.89277824 -19.29668794 34.57491043 -19.31593323 31.25667191 C-19.3357802 27.65890688 -19.33106883 24.06198671 -19.32012939 20.46420288 C-19.33178076 19.4155601 -19.34343213 18.36691731 -19.35543656 17.28649747 C-19.30617503 11.30897112 -18.80419808 7.90371829 -14.83911133 3.34057617 C-10.37603736 -0.5343875 -5.61363918 -0.0653547 0 0 Z " fill="#D1DBFC" transform="translate(69.839111328125,145.659423828125)"/>
<path d="M0 0 C1.2272572 0.00157627 1.2272572 0.00157627 2.47930747 0.00318438 C3.34587401 -0.00346343 4.21244056 -0.01011124 5.10526669 -0.0169605 C8.02630877 -0.03673873 10.94719805 -0.04204332 13.86829978 -0.04733747 C15.95573677 -0.05822645 18.0431698 -0.06989748 20.13059837 -0.08229536 C25.81464466 -0.11287002 31.49865036 -0.12983585 37.18276221 -0.14251155 C40.73236477 -0.15058575 44.28195554 -0.16076598 47.8315509 -0.17152685 C58.93261692 -0.20426666 70.03365451 -0.22815896 81.13476229 -0.24034071 C93.95790165 -0.25459435 106.78049051 -0.29845595 119.60344744 -0.3678422 C129.50840625 -0.41959401 139.41320839 -0.44451174 149.31830037 -0.44916284 C155.23706254 -0.45256441 161.15526871 -0.46747596 167.07388717 -0.51044363 C172.64318128 -0.55016499 178.2115306 -0.55661246 183.78092414 -0.53754324 C185.82435001 -0.53627588 187.86782386 -0.54697456 189.91111404 -0.57055753 C192.7035303 -0.60094505 195.49256412 -0.58805026 198.28497154 -0.56444257 C199.09198939 -0.58346823 199.89900725 -0.60249388 200.73048019 -0.62209606 C205.44335361 -0.52735528 207.73777994 0.345375 211.12712413 3.69874197 C212.17235087 4.87774676 213.19927129 6.0734656 214.19959861 7.29079729 C214.8840908 8.05907854 215.56858299 8.82735979 216.27381736 9.61892229 C217.35769728 10.91013033 218.44102244 12.20180425 219.52381736 13.49392229 C222.11549638 16.27287881 224.2133536 18.0666507 227.94959861 18.91579729 C232.98377163 17.9476871 235.71380672 14.92319675 239.19959861 11.29079729 C239.81879173 10.37664207 240.43798484 9.46248684 241.07594138 8.52062994 C244.59997962 3.63073442 247.4778217 0.28557398 253.50257713 -0.71321005 C258.94989595 -1.22205601 264.39256121 -1.09436909 269.85584861 -0.98972028 C271.95257972 -0.98989177 274.04931512 -0.99488706 276.146025 -1.00432295 C281.81787302 -1.01598759 287.48721091 -0.95970045 293.15857154 -0.89039916 C299.09524891 -0.82892844 305.03193948 -0.82847407 310.96888572 -0.82094282 C320.92888095 -0.79980861 330.88794307 -0.73853787 340.84754783 -0.64889997 C354.90893768 -0.5224458 368.96988872 -0.47096697 383.03175575 -0.43321472 C393.94193387 -0.40099154 404.85201914 -0.34686649 415.76209861 -0.29123396 C417.52089851 -0.28282086 417.52089851 -0.28282086 419.31522971 -0.27423781 C426.0412329 -0.241183 432.76699795 -0.19747295 439.49280959 -0.13664526 C441.53344978 -0.11956248 443.57412117 -0.10584314 445.61480743 -0.09565443 C448.39007512 -0.08104858 451.1649441 -0.05413379 453.94007713 -0.02373213 C454.75620223 -0.02205449 455.57232734 -0.02037686 456.41318351 -0.01864839 C461.97103476 0.06223344 461.97103476 0.06223344 464.19959861 2.29079729 C465.43447975 12.04061468 464.06181679 21.10208672 458.14100486 29.05642229 C451.07068791 37.21172886 443.67418404 42.70413936 432.64666694 43.56965631 C428.21623191 43.71978433 423.78598833 43.69597212 419.3536666 43.67847735 C417.63298075 43.68265333 415.91229765 43.68813229 414.19161963 43.69479716 C409.4767485 43.70923569 404.76205242 43.70501201 400.04717177 43.69763035 C394.95709494 43.69289708 389.86705589 43.70540991 384.77699119 43.71564776 C374.81057073 43.73283766 364.84421331 43.7336754 354.87778188 43.72843485 C346.77691201 43.72439246 338.67606077 43.72583754 330.5751918 43.73118311 C328.8453633 43.73230574 328.8453633 43.73230574 327.08058877 43.73345106 C324.73779088 43.73498254 322.394993 43.73652089 320.05219512 43.73806603 C298.08567155 43.75179163 276.1191836 43.74635283 254.15266084 43.73488081 C234.05875576 43.72494726 213.96494274 43.73789114 193.87105186 43.761815 C173.2344226 43.78619981 152.59783623 43.79581546 131.96119285 43.78916228 C120.37693854 43.78566883 108.79275506 43.7879105 97.20851165 43.80541331 C87.34769696 43.82012747 77.48700297 43.82078088 67.62619067 43.80334239 C62.59607679 43.79482383 57.56617859 43.79270391 52.53607589 43.80799395 C47.92883412 43.82182517 43.32199315 43.81709795 38.71477466 43.79775471 C37.05067875 43.79398962 35.38655086 43.79693135 33.7224834 43.80736636 C20.33846604 43.88530771 11.25467313 42.05518032 1.32850486 32.51735979 C-6.50551253 24.32398381 -8.13992717 16.05564438 -8.10118264 5.01345354 C-7.51656594 -0.27846641 -4.66509579 0.05220347 0 0 Z " fill="#BB99F3" transform="translate(27.800401389598846,448.7092027068138)"/>
<path d="M0 0 C33.33 0 66.66 0 101 0 C101 0.33 101 0.66 101 1 C75.26 1 49.52 1 23 1 C24.32 7.27 25.64 13.54 27 20 C28.41179769 28.47078616 29.31502071 36.42443612 29 45 C30.07121094 45.37898438 30.07121094 45.37898438 31.1640625 45.765625 C36.30823024 48.00468424 40.55958236 51.61498597 45 55 C45.62132812 55.45117188 46.24265625 55.90234375 46.8828125 56.3671875 C63.48519592 69.28015238 74.33181013 92.45498284 77 113 C77.15838929 116.82572071 77.16745731 120.6493928 77.17700195 124.47802734 C77.18357315 125.62672806 77.19014435 126.77542877 77.19691467 127.9589386 C77.21658791 131.75127228 77.22829496 135.54356653 77.23828125 139.3359375 C77.24235678 140.63332478 77.2464323 141.93071205 77.25063133 143.26741409 C77.26931893 149.42369092 77.28389303 155.5799481 77.2922433 161.73624742 C77.30201847 168.82409146 77.32835751 175.91162346 77.36874419 182.99935758 C77.40260539 189.15457078 77.41439305 195.30965322 77.41844749 201.46495438 C77.42331639 204.07640326 77.4349389 206.68784873 77.45348549 209.2992363 C77.47783694 212.95413854 77.47691896 216.60822503 77.4699707 220.26318359 C77.48918579 221.87500771 77.48918579 221.87500771 77.50878906 223.51939392 C77.46026271 230.53305253 76.50277795 236.32551099 71.51721668 241.55547142 C66.53857003 245.9110828 61.87494268 246.72949026 55.42578125 246.64453125 C49.2006166 245.47332011 44.7747449 241.50539891 39.97607422 237.60058594 C37.86423178 235.89003009 35.72049795 234.22730611 33.56640625 232.5703125 C29.73154189 229.61685333 25.91705232 226.63851396 22.10839844 223.65136719 C13.52762562 216.93062294 4.85662026 210.3540482 -4 204 C-4.14695312 204.61746094 -4.29390625 205.23492187 -4.4453125 205.87109375 C-5.72013073 210.68463154 -6.94036907 214.1299895 -10.1875 217.9375 C-14.41133008 223.79066994 -13.31002963 230.34770158 -13.10546875 237.2265625 C-12.81119775 247.21597678 -14.73134236 256.02787037 -18.25 265.3125 C-18.52529541 266.04154541 -18.80059082 266.77059082 -19.08422852 267.52172852 C-19.97446901 269.7286945 -20.96568985 271.8570253 -22 274 C-22.3520752 274.83313721 -22.70415039 275.66627441 -23.06689453 276.5246582 C-24.47290922 279.27582701 -25.6099759 281.02706614 -28 283 C-32.83391693 284.10321233 -37.44948905 283.85150942 -42.375 283.5625 C-43.68339844 283.52189453 -44.99179687 283.48128906 -46.33984375 283.43945312 C-49.56368674 283.33356047 -52.77993742 283.18580949 -56 283 C-53.7009887 279.47116825 -51.34511857 276.1492832 -48.625 272.9375 C-40.17171633 262.19364914 -36.6447511 250.20431716 -36.75 236.75 C-36.74226563 235.77675781 -36.73453125 234.80351562 -36.7265625 233.80078125 C-36.74460238 227.00876629 -37.5725769 220.63637937 -39 214 C-36.78645833 212.69791667 -34.57291667 211.39583333 -32.359375 210.09375 C-27.30577386 205.60909734 -25.87950534 201.06592735 -25.47344971 194.48034668 C-25.33181708 190.98702012 -25.28410893 187.49576871 -25.25 184 C-25.22179872 182.5429339 -25.19186556 181.08590023 -25.16015625 179.62890625 C-25.08678491 176.08608939 -25.03691048 172.54340619 -25 169 C-13.29813027 168.37497432 -13.29813027 168.37497432 -8.625 170.625 C-7.75875 171.40875 -6.8925 172.1925 -6 173 C-4.92425524 173.92335325 -3.84593215 174.8437076 -2.765625 175.76171875 C-2.17845703 176.27524902 -1.59128906 176.7887793 -0.98632812 177.31787109 C2.95531382 180.65586434 7.12578807 183.705512 11.25 186.8125 C13.0542326 188.18378188 14.85761867 189.55617828 16.66015625 190.9296875 C17.54848145 191.60612305 18.43680664 192.28255859 19.35205078 192.97949219 C21.92461194 194.94247542 24.49257886 196.9112821 27.05859375 198.8828125 C27.84137695 199.48375732 28.62416016 200.08470215 29.43066406 200.70385742 C30.90374203 201.83543754 32.3757955 202.96835296 33.84667969 204.1027832 C38.56526447 207.72560774 40.95792456 209.34804515 47.02734375 209.29296875 C49.24352345 209.12736327 49.24352345 209.12736327 51.4375 207.125 C54.40124376 203.09430849 54.1607701 199.67277377 54.17700195 194.82519531 C54.18357315 193.97932358 54.19014435 193.13345184 54.19691467 192.26194763 C54.21668698 189.45067252 54.22832597 186.63945123 54.23828125 183.828125 C54.24235678 182.8655352 54.2464323 181.9029454 54.25063133 180.91118622 C54.27152002 175.80521356 54.28580323 170.6992679 54.29516602 165.59326172 C54.30616828 160.34821088 54.34048782 155.1035916 54.38033772 149.85869217 C54.40665833 145.80398848 54.41487202 141.74938454 54.41844749 137.69460297 C54.42328259 135.76354851 54.43480733 133.83249758 54.45348549 131.9015274 C54.55652096 120.53244568 53.99601854 110.7773202 50 100 C49.73552063 99.2802298 49.47104126 98.56045959 49.19854736 97.81887817 C43.84098718 84.48024246 32.63876941 71.25840309 19.34936523 65.31860352 C9.34036397 60.6124065 9.34036397 60.6124065 7.06781006 56.18313599 C5.53962147 51.11542165 5.47582227 45.87913641 5.3125 40.625 C5.15839702 38.19726711 4.979946 35.77203624 4.80142212 33.34599304 C4.68707208 31.75732045 4.58115543 30.16801673 4.48397827 28.57820129 C4.00607803 20.91529887 2.52175445 13.63568871 0.734375 6.18359375 C0 3 0 3 0 0 Z " fill="#92B1F3" transform="translate(351,146)"/>
<path d="M0 0 C33.33 0 66.66 0 101 0 C100.34 3.96 99.68 7.92 99 12 C98.31741476 16.16424401 97.65549799 20.33141281 97 24.5 C96.81904785 25.61987305 96.6380957 26.73974609 96.45166016 27.89355469 C95.61447271 33.24212554 94.90370828 38.51160362 94.6484375 43.921875 C94.03380277 56.7763572 94.03380277 56.7763572 91.04296875 60.31640625 C88.42432322 61.89584127 85.86451701 62.93761045 83 64 C65.90981616 73.37995722 53.88946459 88.24579559 48.43310547 106.9621582 C46.22182913 116.02374558 46.56777977 125.19674996 46.6015625 134.46484375 C46.59953797 136.43111783 46.59662338 138.39739118 46.59286499 140.36366272 C46.58846676 144.46102124 46.59479642 148.55818219 46.60888672 152.65551758 C46.62605662 157.90337377 46.61607243 163.15077222 46.59816933 168.39861202 C46.58733121 172.44866899 46.59077661 176.49861722 46.5985527 180.54867744 C46.60055053 182.48435076 46.59811014 184.42003402 46.59111404 186.35569572 C46.58349038 189.05502444 46.59511294 191.75360767 46.61181641 194.45288086 C46.60574371 195.24826767 46.59967102 196.04365448 46.59341431 196.86314392 C46.64548024 201.4077557 47.15612557 204.39651025 50 208 C53.38582304 209.69291152 56.37827866 209.78629476 60 209 C63.36582838 207.11779334 66.30422691 204.77518477 69.30126953 202.35693359 C71.89050888 200.28866796 74.53731097 198.29756287 77.17724609 196.29467773 C82.54316411 192.21808216 87.87783046 188.10020991 93.21142578 183.98144531 C94.78755123 182.76918902 96.37223637 181.56808797 97.95703125 180.3671875 C100.02036051 178.76208155 102.03852848 177.09751741 104.01171875 175.3828125 C104.99785156 174.55523437 105.98398438 173.72765625 107 172.875 C107.845625 172.12992188 108.69125 171.38484375 109.5625 170.6171875 C114.88999365 168.11084389 120.2082649 168.70031638 126 169 C126.00410889 169.89195068 126.00821777 170.78390137 126.01245117 171.70288086 C126.03962604 175.05278153 126.08890952 178.40091278 126.15258789 181.75024414 C126.17560364 183.19218889 126.19012462 184.63429783 126.19555664 186.07641602 C126.2337779 194.55859507 126.31342739 202.146846 132 209 C134.09106786 210.99957706 134.09106786 210.99957706 136.3125 212.0625 C137.54166667 212.70833333 138.77083333 213.35416667 140 214 C139.78887573 214.98987915 139.78887573 214.98987915 139.57348633 215.99975586 C138.19411175 222.91608226 137.66384702 229.5186439 137.6875 236.5625 C137.67138672 237.52607422 137.65527344 238.48964844 137.63867188 239.48242188 C137.62800152 255.3065611 144.78323682 268.10424521 155.0234375 279.69921875 C157 282 157 282 157 283 C152.45943197 283.26200753 147.92080597 283.42142326 143.375 283.5625 C142.08980469 283.63791016 140.80460938 283.71332031 139.48046875 283.79101562 C130.1622884 284.0082789 130.1622884 284.0082789 126.85717773 281.14111328 C125.28962661 278.82268998 124.11031839 276.56517162 123 274 C122.48050781 273.06671875 121.96101563 272.1334375 121.42578125 271.171875 C118.26382469 264.29323267 116.41126494 257.42821208 115 250 C114.80277344 249.09507812 114.60554688 248.19015625 114.40234375 247.2578125 C113.95014802 243.59634418 114.07415101 240.14072546 114.2175293 236.46191406 C114.7705925 225.3279682 114.7705925 225.3279682 109.53515625 215.86328125 C106.93428105 212.70649379 106.05017776 208.89671223 105 205 C102.30843913 206.27141271 99.97978989 207.6538719 97.62890625 209.4765625 C96.98268311 209.97446289 96.33645996 210.47236328 95.6706543 210.98535156 C94.97496338 211.52643555 94.27927246 212.06751953 93.5625 212.625 C92.03928155 213.79976324 90.51583324 214.97422849 88.9921875 216.1484375 C88.18491211 216.77202148 87.37763672 217.39560547 86.54589844 218.03808594 C79.50386214 223.46480282 72.41973293 228.83688955 65.34228516 234.21728516 C63.26069465 235.80158512 61.18259851 237.39032946 59.10546875 238.98046875 C58.02883333 239.79972563 56.95202867 240.61876018 55.875 241.4375 C54.98554687 242.11683594 54.09609375 242.79617188 53.1796875 243.49609375 C48.05485795 247.03204245 41.98488793 246.57074428 36 246 C30.81619748 243.50066664 27.34133609 239.88160058 24.9073391 234.65262985 C23.97227897 231.91895685 23.7439076 229.87244785 23.73257446 226.99542236 C23.72404449 226.01183243 23.71551453 225.02824249 23.70672607 224.0148468 C23.70763245 222.94679306 23.70853882 221.87873932 23.70947266 220.77832031 C23.69939682 219.07717323 23.69939682 219.07717323 23.68911743 217.34165955 C23.67010277 213.58710352 23.66621024 209.83272622 23.6640625 206.078125 C23.65763272 203.45798673 23.65090422 200.83784918 23.64389038 198.2177124 C23.63110152 192.71658168 23.62812456 187.21549905 23.62939453 181.71435547 C23.63058978 175.39730329 23.60961122 169.0805962 23.5779072 162.76363111 C23.54834709 156.65168237 23.54142566 150.53989572 23.54261398 144.42787933 C23.54027038 141.84620514 23.53151776 139.26452779 23.51594925 136.68289948 C23.37108277 110.15808327 27.57487472 88.36746027 44 67 C44.81017578 65.91332031 44.81017578 65.91332031 45.63671875 64.8046875 C51.93822494 56.96351859 61.1323174 49.7494172 70 45 C70.66 45 71.32 45 72 45 C71.94779297 44.12214844 71.94779297 44.12214844 71.89453125 43.2265625 C71.44631771 29.0117902 75.23710332 14.81448338 78 1 C52.26 1 26.52 1 0 1 C0 0.67 0 0.34 0 0 Z " fill="#92B1F3" transform="translate(60,146)"/>
<path d="M0 0 C1.81116925 0.00011095 3.62234527 -0.00504912 5.43348694 -0.01504517 C10.32263571 -0.02697157 15.20829604 0.03505072 20.09675717 0.11145258 C25.21792789 0.17930345 30.33912743 0.18022364 35.4606781 0.18893433 C44.04959299 0.21280028 52.63721698 0.28028875 61.22558594 0.37890625 C73.34997421 0.51803287 85.47378854 0.57645918 97.59884369 0.61970735 C107.01056102 0.65626081 116.42215945 0.71513702 125.83374023 0.77685547 C126.84456327 0.78319834 127.8553863 0.78954122 128.89684033 0.7960763 C134.6945692 0.83363985 140.49200293 0.88229178 146.28948021 0.94830704 C148.0479166 0.96698761 149.80639207 0.98232048 151.564888 0.994133 C153.9569718 1.01097372 156.34858121 1.04012839 158.74049377 1.07278442 C159.794402 1.07632405 159.794402 1.07632405 160.86960131 1.07993519 C165.66373866 1.16544764 165.66373866 1.16544764 167.89233398 3.39404297 C169.12721513 13.14386035 167.75455216 22.2053324 161.83374023 30.15966797 C155.62645521 37.31950432 149.34978817 42.42812681 139.89233398 44.39404297 C133.58427536 44.82800119 127.29035526 44.77362467 120.97021484 44.73461914 C119.04772963 44.73377209 117.12524344 44.73424953 115.20275879 44.73594666 C110.00295858 44.73680499 104.80336731 44.71920537 99.60361552 44.69822478 C94.16239538 44.67943103 88.72117008 44.67770541 83.27992249 44.67414856 C72.98475448 44.66483603 62.68968241 44.64023293 52.39455658 44.61010009 C40.67027974 44.57653145 28.94599825 44.56006387 17.22168529 44.54501379 C-6.8881516 44.5136827 -30.99790342 44.46093758 -55.10766602 44.39404297 C-54.16509211 43.1223691 -53.22042826 41.85224417 -52.27490234 40.58276367 C-51.48615471 39.52156059 -51.48615471 39.52156059 -50.68147278 38.43891907 C-48.53530697 35.65036633 -46.21173101 33.14131181 -43.79516602 30.58154297 C-40.25347255 26.78962116 -36.86059305 22.94122148 -33.60766602 18.89404297 C-32.9161869 18.05975328 -32.22470778 17.2254636 -31.51227474 16.36589241 C-29.91116643 14.38708697 -28.37163623 12.35682027 -26.89856052 10.28094292 C-19.03587161 0.15293856 -12.33243478 -0.30203114 0 0 Z " fill="#BB99F3" transform="translate(324.107666015625,447.60595703125)"/>
<path d="M0 0 C8.57557086 6.2297869 14.48221186 15.05077871 17.30078125 25.2734375 C17.74068893 28.34905458 17.82585097 31.35673478 17.80078125 34.4609375 C17.79506104 35.29028809 17.78934082 36.11963867 17.78344727 36.97412109 C17.45782901 48.29949689 13.37323113 58.23245916 5.30078125 66.2734375 C-6.05993159 76.04170854 -17.8423645 78.61513177 -32.48291016 77.54394531 C-42.38494168 76.33536953 -51.25895736 70.42731233 -57.66796875 62.98828125 C-66.32386929 51.4165159 -68.42816204 39.43891333 -66.69921875 25.2734375 C-63.86626198 13.80372314 -56.65093032 4.49088778 -46.69921875 -1.7265625 C-32.01986112 -10.06892968 -14.08748651 -9.01109846 0 0 Z " fill="#FEFEFE" transform="translate(280.69921875,151.7265625)"/>
<path d="M0 0 C22.44 0 44.88 0 68 0 C73.55559241 11.11118483 74.82583155 21.9148382 72.3515625 34.2265625 C68.96703339 43.33875626 61.75866522 50.34898689 55.3203125 57.3984375 C52.96459657 60.03969476 50.72489719 62.74794947 48.5 65.5 C44.18250335 70.83785742 39.64075322 75.94234697 35 81 C32.02882526 79.68462163 30.16978474 78.35621334 28.08203125 75.875 C27.55440186 75.25584717 27.02677246 74.63669434 26.4831543 73.9987793 C25.93183838 73.33918213 25.38052246 72.67958496 24.8125 72 C23.64926463 70.63080728 22.48519987 69.26231875 21.3203125 67.89453125 C20.75344727 67.22631348 20.18658203 66.5580957 19.60253906 65.86962891 C17.51224227 63.43094932 15.35623366 61.05648259 13.1875 58.6875 C2.85543535 47.21796035 -5.14003448 37.21883283 -5.3125 21.375 C-5.34150391 20.51003906 -5.37050781 19.64507812 -5.40039062 18.75390625 C-5.46324236 12.30435172 -4.02799464 7.66547868 -1 2 C-0.67 1.34 -0.34 0.68 0 0 Z " fill="#FB8E01" transform="translate(222,361)"/>
<path d="M0 0 C33 0 66 0 100 0 C100 8.58 100 17.16 100 26 C67 26 34 26 0 26 C0 17.42 0 8.84 0 0 Z " fill="#269FC9" transform="translate(206,315)"/>
<path d="M0 0 C4.00139013 -0.17423988 8.00128646 -0.30060848 12.00561523 -0.38452148 C13.3647308 -0.41952778 14.72358647 -0.46715338 16.08178711 -0.52807617 C27.32498484 -1.01942414 27.32498484 -1.01942414 31.3659668 1.43994141 C33.13676025 3.19590961 34.57356933 4.95874276 36 7 C37.02673828 8.15242188 37.02673828 8.15242188 38.07421875 9.328125 C39.15809867 10.61933304 40.24142383 11.91100695 41.32421875 13.203125 C43.91589777 15.98208152 46.01375499 17.77585341 49.75 18.625 C54.73802883 17.66576369 57.59736986 14.67208336 61 11 C61.56589844 10.03835938 62.13179688 9.07671875 62.71484375 8.0859375 C65.08171229 4.45830135 67.00327852 1.7357992 71 0 C80.53229365 -1.4226881 90.42185169 -0.66787361 100 0 C96.32758731 5.06402975 92.50504574 9.78928883 88.1875 14.3125 C84.43268558 18.30903569 80.8173052 22.35116104 77.375 26.625 C76.63894531 27.50027344 75.90289062 28.37554687 75.14453125 29.27734375 C72.91999039 31.98050267 72.91999039 31.98050267 71.13671875 35.12890625 C68.00451924 39.74757332 65.62690188 42.37706986 60.19140625 43.66601562 C51.74965178 44.82739639 40.39369014 46.10623007 33.1796875 40.671875 C30.23811399 37.79804801 28.16611085 34.48038035 26 31 C24.5467045 29.16669084 23.06796769 27.35321419 21.5625 25.5625 C20.84707031 24.67175781 20.13164062 23.78101563 19.39453125 22.86328125 C16.159709 18.99521484 12.73077905 15.3235224 9.24829102 11.67797852 C5.78172711 8.00616138 2.8645251 4.16087953 0 0 Z " fill="#6764F6" transform="translate(206,449)"/>
<path d="M0 0 C0.0501123 1.05687012 0.10022461 2.11374023 0.15185547 3.20263672 C0.34375541 7.21757473 0.54319402 11.23211208 0.74462891 15.24658203 C0.8299397 16.96653717 0.9133489 18.68658795 0.99462891 20.40673828 C1.43096161 29.61281966 1.98750887 38.7785911 3 47.94140625 C3.1222847 49.04879654 3.1222847 49.04879654 3.24703979 50.17855835 C3.67827357 53.86747797 4.24483533 57.45467711 5.125 61.0625 C6.1625448 65.418919 6.85759252 69.54959238 6 74 C4.2467328 76.52510611 2.01334734 78.08065532 -0.5 79.8125 C-1.16402832 80.30459961 -1.82805664 80.79669922 -2.51220703 81.30371094 C-3.92432817 82.34720873 -5.34538973 83.37869875 -6.77441406 84.39892578 C-9.05486049 86.03946633 -11.29182676 87.72732328 -13.5234375 89.43359375 C-24.75138428 98 -24.75138428 98 -26 98 C-26.0932449 89.86274362 -26.16403796 81.72571557 -26.20724869 73.58805466 C-26.22800211 69.80818373 -26.25609088 66.02868198 -26.30175781 62.24902344 C-26.34565913 58.59203791 -26.36922881 54.93540435 -26.37950897 51.27817535 C-26.38682192 49.89249389 -26.40109905 48.50682868 -26.42292023 47.12129974 C-26.65301282 31.88664092 -22.75345108 18.74784444 -12 7.625 C-3.94281377 0 -3.94281377 0 0 0 Z " fill="#F97B9F" transform="translate(152,228)"/>
<path d="M0 0 C10.3012375 3.88400286 17.70168851 12.80946885 22.21484375 22.6484375 C24.72616084 28.74352026 26.12658137 33.69666488 26.11352539 40.32910156 C26.11344986 41.61012756 26.11337433 42.89115356 26.11329651 44.21099854 C26.10819026 45.60420775 26.10297427 46.99741657 26.09765625 48.390625 C26.09579032 49.81980337 26.09436724 51.24898238 26.09336853 52.67816162 C26.08955715 56.43300148 26.07973867 60.18780243 26.06866455 63.94262695 C26.05842075 67.77685012 26.05386455 71.61107959 26.04882812 75.4453125 C26.03811514 82.96355937 26.02105531 90.48177423 26 98 C22.59685155 95.75670688 19.24388501 93.49546249 16.01171875 91.01171875 C15.30909912 90.47385742 14.60647949 89.93599609 13.88256836 89.38183594 C12.39338607 88.23236145 10.9059739 87.08059075 9.42016602 85.92675781 C6.28854812 83.49872526 3.18092695 81.12160291 -0.109375 78.91015625 C-0.91890625 78.36230469 -1.7284375 77.81445312 -2.5625 77.25 C-3.24441406 76.82203125 -3.92632812 76.3940625 -4.62890625 75.953125 C-9.01427639 69.70615899 -5.02827707 57.78274687 -3.91952515 50.58703613 C-1.33642391 33.67842062 -0.10191297 17.11338554 0 0 Z " fill="#F97B9F" transform="translate(360,228)"/>
</svg>
